<svg width="512" height="512" viewBox="0 0 512 512" fill="none" xmlns="http://www.w3.org/2000/svg">
<rect width="512" height="512" fill="#FB6612"/>
<path d="M143.175 395V114.5H257.075C270.675 114.5 283.425 115.633 295.325 117.9C307.225 119.883 317.992 123 327.625 127.25C337.542 131.5 346.042 136.883 353.125 143.4C360.492 149.917 366.017 157.708 369.7 166.775C373.383 175.558 375.225 185.617 375.225 196.95C375.225 206.867 373.667 215.792 370.55 223.725C367.717 231.658 363.183 238.742 356.95 244.975C350.717 250.925 342.783 255.883 333.15 259.85C323.8 263.533 312.892 266.083 300.425 267.5V273.45C314.875 275.15 326.492 278.55 335.275 283.65C344.058 288.75 350.858 295.692 355.675 304.475C360.775 313.258 365.167 324.167 368.85 337.2L385.425 395H317.85L305.1 341.875C302.55 330.542 298.867 321.617 294.05 315.1C289.233 308.583 283.142 304.05 275.775 301.5C268.692 298.95 260.05 297.675 249.85 297.675H204.375V395H143.175ZM204.375 251.35H243.9C248.717 251.35 254.1 251.208 260.05 250.925C266 250.642 271.95 249.792 277.9 248.375C284.133 246.958 289.658 244.692 294.475 241.575C299.575 238.458 303.683 234.067 306.8 228.4C310.2 222.733 311.9 215.508 311.9 206.725C311.9 197.658 310.342 190.292 307.225 184.625C304.108 178.958 300.142 174.567 295.325 171.45C290.508 168.333 285.408 166.067 280.025 164.65C274.642 163.233 269.542 162.383 264.725 162.1C259.908 161.817 256.083 161.675 253.25 161.675H204.375V251.35Z" fill="black"/>
</svg>
