<svg xmlns="http://www.w3.org/2000/svg" width="754" height="255" fill="none"><path stroke="#222B25" stroke-dasharray="5.49 5.49" stroke-linecap="round" stroke-linejoin="round" stroke-miterlimit="1.5" stroke-width="2.289" d="M65.202 165.431c-57.999 15.51-86.042-65.785-37.667-82.4 59.431-20.409 95.402 52.747 40.302 83.987-53.105 19.988-86.153-43.27-48.573-77.904C58.924 52.56 120.121 114.659 80 152.06c-38.24 35.642-102.894-13.834-69.191-51.888 7.883-8.9 20.047-15.48 31.918-16.673 36.294-3.646 48.228 30.375 72.395 49.343 24.186 18.981 57.513 25.822 87.004 17.139 12.095-3.559 23.879-10.976 31.158-21.36 14.164-20.208-1.754-42.54-23.224-47.838-38.011-9.382-78.988 21.618-71.073 62.319 15.359 78.932 142.411 45.988 122.497-38.727-16.65-70.823-142.846-50.145-126.214 23.362 7.384 32.648 42.231 57.921 75.426 56.978 31.213-.887 63.107-28.76 55.224-62.13-4.075-17.218-15.918-31.08-30.009-41.294-40.698-29.495-88.418-19.99-105.988 29.812-5.759 16.331-4.34 33.809 2.54 49.605 26.754 61.412 127.698 14.119 122.278-49.429-5.242-61.372-89.921-83.547-117.434-23.977-6.551 14.188-7.98 30.963-3.635 45.989 3.511 12.147 10.442 23.37 19.566 32.14 72.323 69.534 124.04-28.493 168.629-71.144 12.169-11.642 26.831-21.342 42.44-27.74 39.514-16.195 106.517-3.739 118.516 43.483 22.112 87.017-143.781 141.856-155.647 37.26-3.694-32.556 7.296-69.852 36.018-88.115 30.652-19.494 89.123-12.172 102.885 26.278 4.253 11.88 2.624 24.917.306 37.033-8.168 42.705-41.221 87.138-88.693 84.965-18.626-.853-32.809-10.641-42.846-25.913-7.376-11.225-14.668-24.435-16.325-37.97-1.594-12.977.572-26.286 5.666-38.281 24.681-58.095 96.095-54.143 133.47-11.766 15.817 17.932 31.887 50.01 19.124 73.497-35.259 64.886-185.76-14.674-141.854-81.2 9.025-13.678 22.673-22.982 38.369-27.5 12.815-3.69 26.636-3.16 39.6-.566 17.701 3.547 42.107 9.02 51.946 26.133 3.892 6.769 3.762 14.36 2.035 21.792-9.158 39.458-70.488 59.316-104.973 64.235-18.521 2.642-44.244 3.061-45.828-21.389-3.347-51.499 70.499-82.728 112.284-84.299 19.777-.742 48.275 3.556 55.3 25.304 13.7 42.417-47.308 126.17-93.05 122.723-28.555-2.151-50.696-34.431-59.381-59.314-16.645-47.684 2.073-96.54 57.589-98.769 13.5-.54 27.76 1.305 39.981 7.317 30.937 15.214 48.181 56.322 47.088 89.726-.567 17.352-8.716 34.061-21.528 45.617-49.758 44.873-134.927 5.13-123.42-62.164 8.121-47.508 68.749-75.6 106.162-40.905 7.583 7.032 13.932 16.791 14.73 27.354 3.939 52.015-83.634 102.85-108.863 48.107-12.651-27.449 6.299-54.638 34.827-59.335 14.606-2.406 29.371-.037 43.972 1.156 12.274 1.003 36.274-1.079 29.541-20.016-3.663-10.306-13.425-17.948-23.406-21.668-56.061-20.885-80.321 75.389-24.263 88.372 9.347 2.165 19.316 1.088 27.688-3.673 9.158-5.207 16.281-14.716 18.035-25.163 9.1-54.17-84.739-78.457-101.907-24.979-18.125 56.454 62.7 98.182 102.934 59.716 7.884-7.537 13.936-17.205 15.82-28.046 11.486-66.097-83.291-102.403-118.795-45.595-17.193 27.518-12.667 69.57 12.098 90.915 9.316 8.031 21.528 13.912 33.873 15.076 3.88.365 7.797.407 11.686.209 1.77-.091 3.54-.285 5.3-.484.879-.1 3.494-.539 2.636-.322-41.896 10.603-76.682-14.167-78.155-57.492-.402-11.815.867-23.219 6.848-33.606 6.918-12.02 19.173-21.087 31.679-26.566 49.09-21.516 89.872 15.202 99.849 61.863 3.401 15.904 3.651 32.606-5.187 46.952-41.466 67.299-170.309-21.705-136.901-91.198 21.472-44.662 79.272-44.49 115.744-20.205 49.143 32.722 72.66 92.535 123.066 122.789 54.425 32.666 121.995 25.559 144.56-40.454 36.787-107.62-117.293-164.034-166.63-75.27-25.167 45.278 3.173 115.06 45.413 139.992 35.194 20.773 88.035 7.428 106.057-30.17C735.021 117.6 665.742-34.779 577.983 49.31c-9.907 9.493-19.065 20.453-25.694 32.503-10.066 18.3-15.675 39.353-18.162 60.026-9.817 81.611 68.094 87.706 129.768 74.57 30.527-6.502 60.459-14.833 69.758-48.258 4.732-17.011 2.311-35.909-3.531-52.323-19.177-53.886-76.157-86.73-132.622-82.329-37.188 2.9-77.4 45.06-71.508 83.566 8.825 57.686 91.71 131.317 151.535 105.055 44.408-19.496 87.193-107.931 52.305-151.411-20.701-25.796-59.579-22.404-87.255-12.11-51.171 19.033-108.551 70.644-94.726 131.21 2.788 12.213 7.176 23.79 15.624 33.26 22.687 25.429 61.042 20.123 88.338 5.755 20.052-10.557 36.818-25.084 48.274-44.852 19.834-34.224 29.651-123.786-11.157-147.9-39.139-23.127-110.262 10.56-126.443 50.677-25.543 63.324 27.758 143.022 93.357 151.929 42.38 5.754 64.382-34.158 67.383-71.715 4.933-61.741-20.749-113.221-81.806-131.998-18.357-5.646-38.919-7.174-56.746 1.002-11.953 5.483-22.737 14.756-30.526 25.28-80.726 109.079 114.29 170.74 165.371 115.835 10.11-10.867 15.027-25.679 15.573-40.312 3.295-88.23-132.206-148.477-173.083-52.492-43.482 102.097 113.38 176.189 159.069 74.089 5.611-12.536 8.661-26.329 9.127-40.049 3.291-96.801-152.448-99.207-177.401.513-4.202 16.791-5.079 34.746 2.874 50.639 8.664 17.311 25.136 29.627 43.496 35.115 81.148 24.254 164.706-85.921 89.667-140.181-11.849-8.569-25.97-14.62-40.218-17.787-51.23-11.398-99.705 34-105.449 83.748-2.654 22.992 3.303 45.509 12.438 66.503 10.708 24.607 27.644 54.791 57.9 56.27 81.354 3.976 118.574-147.094 94.386-208.089-13.909-35.073-64.448-57.6-96.86-32.454-17.194 13.337-28.096 36.093-32.793 56.923-15.092 66.943 12.372 122.042 76.471 149.034 35.591 14.986 96.454 25.874 97.272-31.546.949-66.703-58.362-123.713-117.723-143.138-38.179-12.49-80.222-11.646-102.076 26.996-22.436 39.668-1.623 93.052 35.265 115.989 19.27 11.982 42.338 16.605 64.84 16.068 31.106-.741 71.288-16.158 75.476-51.648 6.739-57.119-73.96-97.253-122.035-84.485-34.811 9.246-52.552 47.346-60.261 79.279-4.102 16.998-7.679 37.76.285 54.252 13.064 27.057 49.248 24.359 73.262 16.676 47.373-15.154 124.881-78.935 89.266-135.321-24.812-39.284-93.981-51.762-120.729-7.848-5.31 8.717-7.978 20.443-5.76 30.549 6.467 29.457 40.308 39.886 66.821 40.575 30.954.804 58.401-13.292 87.9-20.176 20.839-4.864 17.509 35.716-49.214 80.361" class="path"/></svg>