<svg width="754" height="255" viewBox="0 0 754 255" fill="none" xmlns="http://www.w3.org/2000/svg">
<path class="path" d="M65.2024 165.431C7.20322 180.941 -20.8399 99.6465 27.5354 83.0317C86.9664 62.6223 122.937 135.778 67.8365 167.018C14.7323 187.006 -18.316 123.748 19.2644 89.114C58.9232 52.5599 120.121 114.659 80.0002 152.06C41.7605 187.702 -22.8939 138.226 10.809 100.172C18.6922 91.2724 30.8559 84.6921 42.7265 83.4987C79.0205 79.8528 90.9552 113.874 115.122 132.842C139.308 151.823 172.635 158.664 202.126 149.981C214.221 146.422 226.005 139.005 233.284 128.621C247.448 108.413 231.53 86.0806 210.06 80.7835C172.049 71.4014 131.072 102.401 138.987 143.102C154.346 222.034 281.398 189.09 261.484 104.375C244.834 33.5517 118.638 54.2299 135.27 127.737C142.654 160.385 177.501 185.658 210.696 184.715C241.909 183.828 273.803 155.955 265.92 122.585C261.845 105.367 250.002 91.5046 235.911 81.2907C195.213 51.7963 147.493 61.3019 129.923 111.103C124.164 127.434 125.583 144.912 132.463 160.708C159.217 222.12 260.161 174.827 254.741 111.279C249.499 49.9069 164.82 27.7323 137.307 87.302C130.756 101.49 129.327 118.265 133.672 133.291C137.183 145.438 144.114 156.661 153.238 165.431C225.561 234.965 277.278 136.938 321.867 94.2875C334.036 82.6449 348.698 72.9447 364.307 66.5465C403.821 50.352 470.824 62.8081 482.823 110.03C504.935 197.047 339.042 251.886 327.176 147.29C323.482 114.734 334.472 77.4375 363.194 59.1747C393.846 39.6808 452.317 47.0032 466.079 85.453C470.332 97.3333 468.703 110.37 466.385 122.486C458.217 165.191 425.164 209.624 377.692 207.451C359.066 206.598 344.883 196.81 334.846 181.538C327.47 170.313 320.178 157.103 318.521 143.568C316.927 130.591 319.093 117.282 324.187 105.287C348.868 47.1918 420.282 51.144 457.657 93.5207C473.474 111.453 489.544 143.531 476.781 167.018C441.522 231.904 291.021 152.344 334.927 85.8179C343.952 72.1403 357.6 62.8356 373.296 58.3181C386.111 54.6287 399.932 55.1575 412.896 57.7523C430.597 61.2988 455.003 66.7722 464.842 83.8851C468.734 90.654 468.604 98.2456 466.877 105.677C457.719 145.135 396.389 164.993 361.904 169.912C343.383 172.554 317.66 172.973 316.076 148.523C312.729 97.0242 386.575 65.7953 428.36 64.2241C448.137 63.4821 476.635 67.7803 483.66 89.5283C497.36 131.945 436.352 215.698 390.61 212.251C362.055 210.1 339.914 177.82 331.229 152.937C314.584 105.253 333.302 56.3977 388.818 54.1682C402.318 53.6271 416.578 55.4729 428.799 61.4847C459.736 76.6986 476.98 117.807 475.887 151.211C475.32 168.563 467.171 185.272 454.359 196.828C404.601 241.701 319.432 201.958 330.939 134.664C339.06 87.1564 399.688 59.0634 437.101 93.7588C444.684 100.791 451.033 110.55 451.831 121.113C455.77 173.128 368.197 223.963 342.968 169.22C330.317 141.771 349.267 114.582 377.795 109.885C392.401 107.479 407.166 109.848 421.767 111.041C434.041 112.044 458.041 109.962 451.308 91.0253C447.645 80.7185 437.883 73.0775 427.902 69.3574C371.841 48.4723 347.581 144.746 403.639 157.729C412.986 159.894 422.955 158.817 431.327 154.056C440.485 148.849 447.608 139.34 449.362 128.893C458.462 74.7227 364.623 50.4357 347.455 103.914C329.33 160.368 410.155 202.096 450.389 163.63C458.273 156.093 464.325 146.425 466.209 135.584C477.695 69.4873 382.918 33.1806 347.414 89.9893C330.221 117.507 334.747 159.559 359.512 180.904C368.828 188.935 381.04 194.816 393.385 195.98C397.265 196.345 401.182 196.387 405.071 196.189C406.841 196.098 408.611 195.904 410.371 195.705C411.25 195.605 413.865 195.166 413.007 195.383C371.111 205.986 336.325 181.216 334.852 137.891C334.45 126.076 335.719 114.672 341.7 104.285C348.618 92.2649 360.873 83.1984 373.379 77.719C422.469 56.2026 463.251 92.9205 473.228 139.582C476.629 155.486 476.879 172.188 468.041 186.534C426.575 253.833 297.732 164.829 331.14 95.3359C352.612 50.6738 410.412 50.8469 446.884 75.1307C496.027 107.853 519.544 167.666 569.95 197.92C624.375 230.586 691.945 223.479 714.51 157.466C751.297 49.8452 597.217 -6.56752 547.88 82.1967C522.713 127.474 551.053 197.256 593.293 222.188C628.487 242.961 681.328 229.616 699.35 192.018C735.021 117.6 665.742 -34.7787 577.983 49.3101C568.076 58.8034 558.918 69.7625 552.289 81.8131C542.223 100.113 536.614 121.166 534.127 141.839C524.31 223.45 602.221 229.545 663.895 216.409C694.422 209.907 724.354 201.576 733.653 168.151C738.385 151.14 735.964 132.242 730.122 115.828C710.945 61.942 653.965 29.0989 597.5 33.4992C560.312 36.3998 520.1 78.5599 525.992 117.065C534.817 174.751 617.702 248.382 677.527 222.12C721.935 202.624 764.72 114.189 729.832 70.7089C709.131 44.913 670.253 48.3052 642.577 58.5992C591.406 77.6325 534.026 129.243 547.851 189.809C550.639 202.022 555.027 213.599 563.475 223.069C586.162 248.498 624.517 243.192 651.813 228.824C671.865 218.267 688.631 203.74 700.087 183.972C719.921 149.748 729.738 60.186 688.93 36.072C649.791 12.9447 578.668 46.632 562.487 86.7486C536.944 150.073 590.245 229.771 655.844 238.678C698.224 244.432 720.226 204.52 723.227 166.963C728.16 105.222 702.478 53.7416 641.421 34.9651C623.064 29.3186 602.502 27.791 584.675 35.9667C572.722 41.4497 561.938 50.7233 554.149 61.2462C473.423 170.326 668.439 231.987 719.52 177.082C729.63 166.215 734.547 151.403 735.093 136.77C738.388 48.54 602.887 -11.7072 562.01 84.2779C518.528 186.375 675.39 260.467 721.079 158.367C726.69 145.831 729.74 132.038 730.206 118.318C733.497 21.5168 577.758 19.1106 552.805 118.831C548.603 135.622 547.726 153.577 555.679 169.47C564.343 186.781 580.815 199.097 599.175 204.585C680.323 228.839 763.881 118.664 688.842 64.4036C676.993 55.8351 662.872 49.7835 648.624 46.6169C597.394 35.2187 548.919 80.6163 543.175 130.365C540.521 153.357 546.478 175.874 555.613 196.868C566.321 221.475 583.257 251.659 613.513 253.138C694.867 257.114 732.087 106.044 707.899 45.049C693.99 9.97633 643.451 -12.5513 611.039 12.5954C593.845 25.9323 582.943 48.6884 578.246 69.5181C563.154 136.461 590.618 191.56 654.717 218.552C690.308 233.538 751.171 244.426 751.989 187.006C752.938 120.303 693.627 63.2934 634.266 43.8678C596.087 31.3778 554.044 32.222 532.19 70.8636C509.754 110.532 530.567 163.916 567.455 186.853C586.725 198.835 609.793 203.458 632.295 202.921C663.401 202.18 703.583 186.763 707.771 151.273C714.51 94.1543 633.811 54.0199 585.736 66.7878C550.925 76.0339 533.184 114.134 525.475 146.067C521.373 163.065 517.796 183.827 525.76 200.319C538.824 227.376 575.008 224.678 599.022 216.995C646.395 201.841 723.903 138.06 688.288 81.6739C663.476 42.3896 594.307 29.9124 567.559 73.826C562.249 82.5428 559.581 94.2687 561.799 104.375C568.266 133.832 602.107 144.261 628.62 144.95C659.574 145.754 687.021 131.658 716.52 124.774C737.359 119.91 734.029 160.49 667.306 205.135" stroke="#222B25" stroke-width="2.28898" stroke-miterlimit="1.5" stroke-linecap="round" stroke-linejoin="round" stroke-dasharray="5.49 5.49"/>
</svg>
