<svg xmlns="http://www.w3.org/2000/svg" viewBox="0 0 300 300"><path fill="#5066e4" d="M121.75 259.38c-.49 0-.78-.08-.97-.19-.35-.2-.63-.58-.73-.97-.29-1.16-.47-1.87 6.91-4.28-10.11 2.46-13.71 2.89-14.77 2.27-.4-.24-.68-.61-.79-1.04-.43-1.72 1.47-2.37 4.61-3.45 1.25-.43 2.81-.93 4.71-1.51-10.4 2.75-13.28 3.14-14.28 2.56-.39-.23-.67-.59-.77-1.02-.44-1.75 1.51-2.53 4.99-3.77 1.81-.64 4.2-1.42 7.24-2.35-26.72 7.44-35.73 9.48-37.59 8.4-.42-.24-.71-.62-.82-1.08-.38-1.54.32-2.67 14.42-6.84-2.94.5-4.35.51-4.9.18-.39-.23-.67-.59-.78-1.02-.43-1.74 1.27-2.61 6.98-4.53 3.71-1.25 9.06-2.85 16.36-4.92 4.5-1.27 9.5-2.65 14.82-4.09-.07-.03-.13-.06-.19-.09-.45-.26-.76-.66-.88-1.14-.42-1.69 1.17-2.55 6.15-4.28 3.22-1.12 7.87-2.55 14.21-4.37 1.55-.45 3.17-.91 4.85-1.38-41.99 11.49-51.51 13.69-53.24 12.67-.39-.23-.67-.59-.77-1.02-.28-1.11-.44-1.77 5.86-3.85-34.03 9.23-46.22 12-48.22 10.83-.41-.24-.7-.62-.81-1.06-.43-1.72.58-3 19.42-8.3-.33-.05-.58-.12-.76-.23-.43-.25-.73-.64-.85-1.11-.34-1.38.41-2.29 5.21-4.01-1.52.15-2.42.09-2.83-.15-.41-.24-.69-.61-.8-1.05-.42-1.7 1.19-2.38 5.92-3.89 3.06-.98 7.51-2.26 13.6-3.92 1.37-.37 2.8-.76 4.28-1.15-.1-.04-.2-.08-.28-.13-.48-.28-.82-.71-.95-1.22-.15-.58-.27-1.07.54-1.7-7.06 1.52-11.07 1.94-12.26 1.25-.46-.27-.78-.68-.9-1.16-.25-1.02.21-1.73 1.76-2.52-3.76.63-6.03.7-6.89.2-.46-.27-.79-.69-.91-1.18-.12-.47-.04-.96.23-1.4.3-.5 1.18-1.09 2.67-1.78-2.23.3-3.5.26-4.04-.04-.41-.24-.7-.62-.81-1.07-.4-1.59.4-2.83 13.7-6.81a2.44 2.44 0 01-.6-.22c-.48-.28-.81-.71-.94-1.21-.2-.82-.03-1.47 1.12-2.22-14.6 3.54-21.24 4.57-22.72 3.7-.43-.25-.73-.64-.84-1.1-.21-.85-.08-1.59 2.3-2.74-8.43 1.84-13.16 2.4-14.47 1.64-.46-.27-.78-.68-.9-1.17-.11-.45-.04-.92.21-1.34.19-.31.61-.65 1.32-1.04-25.83 6.24-27.27 5.4-28.27 4.82-.43-.25-.73-.65-.85-1.11-.12-.47-.04-.97.23-1.41 1.48-2.44 16.62-6.97 48.69-15.11-.19-.21-.33-.46-.4-.74-.35-1.39-.56-2.26 12.01-6-.37-.05-.66-.14-.87-.26-.46-.26-.77-.67-.89-1.16-.44-1.77 1.48-2.6 6.31-4.2 3.32-1.1 8.13-2.53 14.72-4.37 12.23-3.41 28.39-7.62 45.49-12.08 24.01-6.26 52.54-13.7 65.66-17.92-17.36 3.47-60.47 15.49-96.44 25.53-72.9 20.33-97.68 26.8-100.79 24.98-.43-.25-.74-.65-.85-1.11-.12-.46-.04-.95.22-1.38.15-.25.46-.53.94-.83-4.94.89-7.58 1.01-8.47.49-.43-.25-.74-.65-.85-1.11-.12-.46-.04-.95.22-1.38.96-1.6 8.33-4.2 23.18-8.32-.46-.03-.79-.12-1.01-.24a1.69 1.69 0 01-.82-1.07c-.12-.48-.04-.99.24-1.44 1.13-1.86 9.93-4.95 27.04-9.68a1.678 1.678 0 01-.49-2.3c.2-.34.74-.73 1.66-1.19-5.18 1-7.82 1.18-8.66.69a1.71 1.71 0 01-.82-1.08c-.42-1.7 1-2.57 7.6-4.68 4.1-1.31 10.06-3 18.21-5.18.7-.19 1.41-.38 2.13-.57-.1-.03-.18-.07-.26-.12-.42-.25-.72-.63-.83-1.09-.11-.46-.04-.94.22-1.36.2-.33.65-.7 1.39-1.11-33.67 9.06-46.17 11.81-48.24 10.59-.42-.25-.72-.63-.83-1.08-.22-.89-.08-1.67 2.5-2.9-8.93 2.05-13.08 2.55-14.23 1.88-.42-.25-.72-.63-.83-1.09-.11-.46-.04-.94.22-1.36 1.44-2.37 18.72-7.34 55.59-16.56-.22-.22-.38-.5-.46-.8-.28-1.12-.47-1.87 6.8-4.23-1.64.16-2.63.09-3.1-.18-.42-.25-.71-.63-.82-1.08-.25-1.01-.08-1.82 3.57-3.29-33.84 9.06-42.45 10.87-44.03 9.94-.39-.23-.66-.59-.77-1.02-.41-1.64-.63-2.54 19.73-8.16-.74.02-1.21-.06-1.48-.22-.39-.23-.67-.59-.78-1.02-.56-2.24 1.28-3.75 39.22-13.84-.3-.25-.5-.58-.59-.94-.29-1.15-.45-1.81 6.07-3.98-6.33 1.52-8.66 1.7-9.55 1.19-.41-.24-.69-.61-.8-1.05-.42-1.69 1.43-2.34 4.49-3.41 2.2-.77 5.38-1.78 9.72-3.09 8.06-2.42 18.67-5.44 29.91-8.63 10.32-2.93 21.95-6.23 31.04-8.95-12.04 3.12-28.81 7.95-43.47 12.18C71.49 99.71 57.11 103.5 54.51 102a1.82 1.82 0 01-.87-1.13c-.11-.46-.04-.94.22-1.36.84-1.39 6.27-3.43 18.84-6.93-.39-.23-.66-.6-.77-1.03-.24-.96-.39-1.56 3.66-3.05-10.05 2.49-13.38 2.9-14.4 2.31-.4-.23-.67-.6-.78-1.03-.53-2.14-.69-2.75 46.61-15.69-.04-.02-.08-.04-.11-.06-.43-.25-.74-.64-.85-1.1-.42-1.68 1.36-2.42 4.54-3.58 1.13-.41 2.5-.88 4.15-1.41-5.15 1.2-7.11 1.3-7.95.82-.41-.24-.7-.62-.81-1.06-.4-1.61.26-1.98 8.89-5.01 4.83-1.7 11.38-3.89 17.71-6 .2-.07.4-.13.59-.2-3.6 1.03-7.26 2.08-10.72 3.08-31.06 8.96-38.15 10.67-39.95 9.63a1.69 1.69 0 01-.82-1.07c-.47-1.9-.52-2.1 27.39-10.61-25.72 6.89-27.23 7.01-28.23 6.42-.35-.2-.63-.58-.73-.97-.29-1.14-.31-1.23 5.59-4.88-3.04.8-3.19.71-3.72.4-.35-.2-.61-.55-.71-.94-.2-.8.29-1.62 1.09-1.82.17-.04.34-.05.5-.04.8-.14 3.73-.95 5.71-1.5q5.9-1.63 6.59-1.23c.35.2.61.55.71.94q.31 1.23-7.08 5.8c7.33-1.81 19.05-4.97 29.13-7.69 32.88-8.88 34.38-9.07 35.43-8.45.35.2.62.57.72.96.45 1.8.54 2.17-23.89 9.68 22.3-6.38 27.21-7.44 28.7-6.58.41.23.69.6.8 1.04.4 1.59-.25 1.96-8.73 4.94-4.74 1.66-11.19 3.82-17.43 5.91-1.59.53-3.24 1.08-4.9 1.64 6.15-1.72 12.89-3.66 19.06-5.44 33.6-9.69 41.26-11.55 43.14-10.46.42.24.71.62.82 1.07.42 1.67.04 2.23-12.51 6.03 2.03-.31 3.18-.26 3.77.08.43.25.73.64.85 1.1.38 1.52.54 2.18-15.77 6.9 12.08-3.06 16.07-3.64 17.16-3 .4.23.68.6.78 1.03.24.96.4 1.6-3.65 3.12 33.61-9.09 45.62-11.82 47.56-10.68.41.24.69.61.8 1.06.12.46.04.95-.22 1.38-1.44 2.39-15.29 6.5-52.64 15.88.13.18.23.39.28.61.31 1.23.48 1.91-7.63 4.6 17.71-4.79 25.01-6.2 26.78-5.18.44.26.75.66.87 1.13.31 1.24.48 1.93-8.08 4.64h.02c.92 0 1.56.12 1.97.36.47.27.8.7.93 1.2.25 1 .42 1.7-3.96 3.32 17.8-4.55 25.02-5.88 26.47-5.04.41.24.69.61.8 1.05.24.96-.04 1.68-1.87 2.61 6.7-1.39 10.07-1.7 11.03-1.13.42.25.71.63.82 1.08.2.8.12 1.5-1.72 2.5 10.74-2.64 15.23-3.34 16.3-2.71.4.23.68.6.78 1.03.15.59.27 1.08-.66 1.75 18.47-4.7 26.46-6.12 28.13-5.14.43.25.73.64.85 1.1.12.48.04.98-.23 1.43-1.82 3-24.36 9.36-70.3 20.79.04.08.07.17.09.26.19.75.12 1.4-1.59 2.34 28.74-7.57 40.5-9.95 42.66-8.68.44.26.75.66.87 1.13.11.45.04.93-.21 1.35-.78 1.29-5.39 3.1-16.3 6.2.45.27.76.68.88 1.16.19.77-.02 1.41-.88 2.08 30.38-7.99 42.63-10.55 44.67-9.36.42.25.72.64.83 1.09.11.46.04.94-.22 1.37-.23.38-.79.81-1.74 1.31 4.95-.96 7.46-1.14 8.22-.7.4.24.69.61.79 1.05.12.46.04.96-.23 1.39-1.68 2.77-22.32 8.56-66.93 19.65.35.25.6.6.7 1.01.12.46.04.95-.22 1.38-.41.68-1.94 1.54-4.67 2.61 17.51-4.43 24.79-5.75 26.21-4.93.41.24.69.61.8 1.05.12.47.04.96-.23 1.4-.62 1.03-3.73 2.44-9.59 4.35.12.04.22.08.3.13.45.26.75.66.87 1.14.23.94.08 1.73-2.93 3.07 5.96-1.22 9.42-1.51 10.59-.84.48.28.81.71.94 1.21.2.79.35 1.41-1.85 2.48 5.83-1.21 8.79-1.45 9.74-.9.43.25.73.64.84 1.1.12.47.04.96-.23 1.39-.28.46-1.08 1.01-2.42 1.64 34.63-9.12 47.73-11.96 49.64-10.84.41.24.69.61.8 1.05.12.48.04 1-.24 1.45-1.56 2.59-17.41 7.47-49.14 15.69.15.19.26.41.32.65.28 1.11-.04 2.05-4.86 3.9 39.95-10.73 55.36-14.18 57.67-12.84.43.25.72.64.84 1.1.43 1.72-.74 2.63-9.29 5.33-5.12 1.61-12.54 3.71-22.69 6.41-7.31 1.94-15.66 4.1-24.6 6.37.38.24.65.6.75 1.03.24.97-.18 1.67-1.59 2.43 26.13-6.84 36.89-8.99 38.87-7.83.43.25.73.65.85 1.11.11.43.04.88-.2 1.26-1.14 1.89-13.43 5.41-53.95 15.54.1.03.19.07.27.12.42.25.72.63.83 1.09.24.96.41 1.64-3.41 3.14 10.09-2.52 14.37-3.14 15.55-2.45.42.24.71.62.82 1.07.43 1.74.61 2.46-24.03 9.13.17.04.31.1.43.17.44.25.75.66.87 1.13.23.93-.11 1.64-1.53 2.44 45.51-12.27 62.52-16.24 64.89-14.85.42.25.71.63.82 1.08.42 1.69-.66 2.51-9.04 5.11-4.96 1.54-12.15 3.54-21.97 6.14-5.75 1.52-12.06 3.15-18.82 4.87.32.24.55.57.64.96.37 1.5-.3 2.62-13.65 6.53 1.35-.12 2.16-.05 2.56.18.41.24.69.61.8 1.05.22.87.37 1.48-2.49 2.7 19.57-5.1 27.3-6.59 28.84-5.69.41.24.7.61.81 1.06.42 1.69-1.26 2.44-5.48 3.88-2.81.96-6.89 2.2-12.48 3.79-1.96.56-4.05 1.15-6.24 1.76 1.53-.18 2.43-.11 2.91.16.42.24.71.62.82 1.07.43 1.72-1.24 2.43-6.1 4.03-3.18 1.05-7.79 2.41-14.09 4.18-.79.22-1.6.45-2.43.68 28.44-7.58 35.74-9.06 37.2-8.21.39.23.66.59.76 1.01.51 2.03.72 2.89-38.55 13.32.44.04.77.12.99.25.43.25.72.63.84 1.09.42 1.7-1.43 2.45-4.75 3.62-.64.23-1.37.47-2.17.74 5.47-1.19 8.2-1.43 9.13-.89.43.25.72.63.84 1.09.43 1.7-1.42 2.43-4.98 3.67-2.5.87-6.1 1.99-11.01 3.43-.42.12-.85.25-1.29.38 48.08-13.24 59.2-15.89 61.11-14.78.4.23.67.6.78 1.03.43 1.73.6 2.4-24.16 9.27 1.8-.26 2.6-.2 3 .04.35.2.65.6.75.99.43 1.74.46 1.83-20.2 8.74 11.36-3.05 11.62-2.9 12.35-2.47.35.2.62.57.72.96.2.8-.29 1.62-1.09 1.82-.24.06-.48.06-.7 0-1.86.2-11.83 2.93-19.89 5.14-21.79 5.97-22.03 5.83-22.94 5.3-.35-.2-.62-.57-.72-.96-.39-1.56.1-1.95 9.29-5.18 5.04-1.77 11.76-4.02 18.25-6.19.48-.16.97-.32 1.46-.49-10.76 2.79-23.92 6.35-35.68 9.54-37.97 10.27-47.25 12.6-50 12.6zm54-37.66c-4.69 1.24-9.55 2.53-14.48 3.83-16.78 4.43-35.84 9.46-49.93 13.45 15.26-3.89 36.25-9.61 54.67-14.63 3.4-.93 6.64-1.81 9.74-2.65zm45.11 16.82c.03.14.08.26.15.37-.06-.11-.11-.23-.15-.37zm0 0zm-45.38-9.05c-5.8 1.57-12.13 3.33-18.5 5.12 6.04-1.66 12.47-3.43 18.5-5.12zm-56.68-8.79c-18.55 4.74-36.67 9.46-48.68 12.92 12.28-2.99 30.54-7.93 48.68-12.92zm55.11-3.51c-12.58 3.39-25.07 6.81-33.87 9.45 9.35-2.37 22.36-6.11 33.87-9.45zm-35.48-6.6c-22.55 5.69-43.34 11.1-55.01 14.64 12.4-2.82 34.09-8.79 55.01-14.64zm82.38-9.16c-14.71 3.77-34.3 9.15-51.96 14.01 6.34-1.71 12.93-3.47 19.43-5.21 11.05-2.95 22.77-6.08 32.52-8.8zm-36.92 4.54c-5.32 1.41-11.05 2.96-16.96 4.57 5.73-1.53 11.5-3.08 16.96-4.57zm-38.6-6.32c-15.06 3.95-29.32 7.78-38.22 10.46 9.36-2.15 24.13-6.35 38.22-10.46zm14.76-8.75c-1.67.43-3.39.88-5.15 1.33-21.96 5.67-47.89 12.35-61.09 16.38 14.19-3.04 42.39-10.95 66.24-17.71zm2.4-6.07c-32.48 8.09-65.86 16.64-78.24 21.02 13-2.38 46.17-11.86 71.58-19.12 2.29-.65 4.51-1.29 6.66-1.9zm45.93 9.63c-6.87 1.75-15.19 3.99-24.12 6.45 9.05-2.35 17.34-4.56 24.12-6.45zm-52.53-12.49c-25.15 6.37-53.31 13.54-68.16 18.05 14.57-3.35 41.38-10.66 68.16-18.05zm16.09-9.09c-31.89 7.98-64.41 16.27-77.07 20.5 13.94-2.48 49.51-12.63 77.07-20.5zm-5.79-3.78c-4.82 1.23-9.95 2.53-15.42 3.91-28.53 7.21-59.94 15.16-74.93 19.74 17.25-3.65 55.17-13.97 90.35-23.65zm-13.94-7.45c-5.75 1.41-11.8 2.88-18.15 4.43-39.12 9.54-86.31 21.04-102.22 26.48 17.92-3.18 71.69-17.67 120.38-30.92zm44.17 26.4c-4.28 1.14-9.18 2.51-14.33 3.98 5.3-1.43 10.16-2.78 14.33-3.98zm-61.46-16.38c-31.82 7.84-62.02 15.45-74.75 19.56 13.49-2.54 44.79-11.15 74.75-19.56zm127.39 4.31c-13.57 3.13-35.61 8.98-58.56 15.21 23.16-5.79 45.19-11.4 58.56-15.21zM94.62 160.43c-28.92 7.09-55.95 13.9-68.36 17.88 12.87-2.65 40.03-10.03 68.36-17.88zm28.53-12.22c-4.47 1.11-9.13 2.27-13.97 3.47-34.55 8.56-76.02 18.84-91.73 24.01 17.59-3.37 64.78-16.25 105.7-27.48zm.18 15.77c-11.76 3.04-22.91 5.97-31.56 8.39 8.61-2.15 19.67-5.12 31.56-8.39zm135.83-6.61c-10.12 2.37-24.35 6.09-39.96 10.29 15.46-3.86 29.82-7.51 39.96-10.29zm-129.88.25c-11.92 3.14-23.16 6.15-31.34 8.51 8.27-2.04 19.52-5.15 31.34-8.51zm99.74-8.42c-13.15 2.95-37.99 9.82-62.92 16.82 24.58-6.24 49.89-12.77 62.92-16.82zm-111.06-5.74c-33.68 8.29-65.48 16.4-78.79 20.92 14.51-3.08 48.2-12.43 78.64-20.88.05-.01.1-.03.15-.04zm164.36-2.12c-15.33 3.3-46.32 11.66-78.25 20.42 31.19-7.78 62.96-15.79 78.25-20.42zm-1.8-10.32c-18.26 3.77-67.95 17.29-112.84 29.52 44.41-10.89 95.19-23.42 112.84-29.52zm-48.86 6.85c-12.92 2.78-39.05 9.96-63.73 16.83 26.56-6.56 51.63-12.95 63.73-16.83zm-110.82.38c-17.71 4.42-34.01 8.57-45.42 11.74 11.43-2.75 27.61-6.98 45.42-11.74zm101.66-3.34c-11.23 2.38-31.93 8.18-51.55 13.82 20.39-5.22 40.69-10.51 51.55-13.82zm-107.35.02c-19.27 4.82-38.06 9.6-50.18 13.02 11.88-2.78 30.11-7.59 50.18-13.02zm85.89-10.37c-14.95 3.16-48.2 12.34-77.46 20.46 30.79-7.65 63.27-15.86 77.46-20.46zm-88.4.62c-26.55 6.72-56.55 14.35-71.77 18.97 14.86-3.34 43.21-11.08 71.77-18.97zm108.74.07c-13.67 3.07-39.8 10.08-67.16 17.56 27.37-6.72 53.76-13.39 67.16-17.56zM83.3 127.57c-23.72 5.86-44.42 11.17-55.77 14.64 12.11-2.71 33.75-8.56 55.77-14.64zm35.08 1.32c-10.96 2.81-20.84 5.44-28.04 7.55 7.36-1.83 17.29-4.54 28.04-7.55zm147.55-25.88c-15.68 3.45-48.21 12.15-80.98 21.02 33.69-8.24 65.9-16.3 80.98-21.02zm-48.55 2.08c-13.31 2.55-45.07 11.57-70.3 18.77 28.47-7.12 58.08-14.67 70.3-18.77zm42.94-5.64c-16.45 3.38-55.14 13.9-90.6 23.63 35.8-8.82 74.64-18.5 90.6-23.63zm-132.07 12.34c-13.28 3.42-25.82 6.7-35.55 9.38 9.64-2.39 22.07-5.71 35.55-9.38zm56.59-8.56c-12.5 2.91-32.64 8.36-53.19 14.03 20.59-5.23 40.83-10.44 53.19-14.03zm-50.22 2.1c-16.61 4.18-33.5 8.5-44.76 11.7 11.1-2.62 27.55-7.01 44.76-11.7zm96.84-8.57c-14.45 2.88-46.45 11.52-78.08 20.25 2-.5 4.05-1.01 6.15-1.52 26.44-6.55 57.91-14.34 71.93-18.72zm-118.64 3.72c-15.12 3.91-30.48 7.93-41.88 11.17 11.31-2.87 26.45-6.96 41.88-11.17zM261.64 79.3c-15.53 3.01-56.79 14.43-91.53 24.06 39.13-9.55 77.45-19.16 91.53-24.06zm-48.06 2.46c-15.64 3.44-45.97 11.58-75.26 19.55 3.13-.79 6.42-1.61 9.86-2.47 23.38-5.86 50.91-12.76 65.41-17.08zM94.92 89.83c-11.49 2.93-21.66 5.64-28.7 7.74 7.38-1.78 17.79-4.65 28.7-7.74zm104.78-9.47c-13.95 3.36-35.83 9.27-56.84 15.01 21.74-5.52 43.31-11.09 56.84-15.01zm-25.88-3.69c-5.59 1.49-11.78 3.2-18.03 4.96 6.23-1.69 12.44-3.39 18.03-4.96zm43.57-21.03c-11.63 2.73-30.61 7.83-49.6 13.04 19.6-4.87 38.35-9.67 49.6-13.04zM84.16 56.87zm0 0zm0 0zm0 0zm-.09-.24c.04.08.06.16.09.24a.854.854 0 00-.09-.24zm0 0z"></path></svg>